<?xml version="1.0" encoding="utf-8"?>
<!-- Generator: Adobe Illustrator 17.0.0, SVG Export Plug-In . SVG Version: 6.00 Build 0)  -->
<!DOCTYPE svg PUBLIC "-//W3C//DTD SVG 1.1//EN" "http://www.w3.org/Graphics/SVG/1.1/DTD/svg11.dtd">
<svg version="1.1" id="Icons" xmlns="http://www.w3.org/2000/svg" xmlns:xlink="http://www.w3.org/1999/xlink" x="0px" y="0px"
	 width="37.529px" height="36.333px" viewBox="0 0 37.529 36.333" enable-background="new 0 0 37.529 36.333" xml:space="preserve">
<path fill="#FFFFFF" d="M37.529,28.333c0,4.418-3.582,8-8,8H8c-4.418,0-8-3.582-8-8V8c0-4.418,3.582-8,8-8h21.529
	c4.418,0,8,3.582,8,8V28.333z"/>
<path d="M30.265,10.655c0,1.197-0.97,2.167-2.167,2.167h-19c-1.197,0-2.167-0.97-2.167-2.167l0,0c0-1.197,0.97-2.167,2.167-2.167h19
	C29.294,8.489,30.265,9.459,30.265,10.655L30.265,10.655z"/>
<path d="M30.265,18.167c0,1.197-0.97,2.167-2.167,2.167h-19c-1.197,0-2.167-0.97-2.167-2.167l0,0C6.931,16.97,7.901,16,9.098,16h19
	C29.294,16,30.265,16.97,30.265,18.167L30.265,18.167z"/>
<path d="M30.265,25.678c0,1.197-0.97,2.167-2.167,2.167h-19c-1.197,0-2.167-0.97-2.167-2.167l0,0c0-1.197,0.97-2.167,2.167-2.167h19
	C29.294,23.511,30.265,24.481,30.265,25.678L30.265,25.678z"/>
</svg>
