<?xml version="1.0" encoding="utf-8"?>
<!-- Generator: Adobe Illustrator 16.2.0, SVG Export Plug-In . SVG Version: 6.00 Build 0)  -->
<!DOCTYPE svg PUBLIC "-//W3C//DTD SVG 1.1//EN" "http://www.w3.org/Graphics/SVG/1.1/DTD/svg11.dtd">
<svg version="1.1" id="Icons" xmlns="http://www.w3.org/2000/svg" xmlns:xlink="http://www.w3.org/1999/xlink" x="0px" y="0px"
	 width="45.699px" height="43.077px" viewBox="0 0 45.699 43.077" enable-background="new 0 0 45.699 43.077" xml:space="preserve">
<g>
	<path fill="#747E9F" d="M35.552,32.182c-5.9-2.147-7.785-3.963-7.785-7.846c0-2.33,1.801-1.569,2.592-5.839
		c0.328-1.771,1.92-0.029,2.223-4.071c0-1.611-0.867-2.013-0.867-2.013s0.441-2.383,0.615-4.219C32.542,5.906,31.007,0,22.819,0
		s-9.725,5.906-9.51,8.194c0.172,1.836,0.613,4.219,0.613,4.219s-0.867,0.401-0.867,2.013c0.303,4.042,1.896,2.301,2.223,4.071
		c0.791,4.27,2.59,3.509,2.59,5.839c0,3.883-1.881,5.698-7.783,7.846c-5.918,2.158-9.268,4.442-9.762,5.857
		c-1.383,3.945,2.117,5.038,2.117,5.038h20.379H43.69c0,0,3.062-1.405,1.625-5.038C44.765,36.646,41.47,34.34,35.552,32.182z"/>
</g>
</svg>
