<?xml version="1.0" encoding="utf-8"?>
<!-- Generator: Adobe Illustrator 17.0.0, SVG Export Plug-In . SVG Version: 6.00 Build 0)  -->
<!DOCTYPE svg PUBLIC "-//W3C//DTD SVG 1.1//EN" "http://www.w3.org/Graphics/SVG/1.1/DTD/svg11.dtd">
<svg version="1.1" id="Layer_1" xmlns="http://www.w3.org/2000/svg" xmlns:xlink="http://www.w3.org/1999/xlink" x="0px" y="0px"
	 width="24px" height="20px" viewBox="-0.993 -0.881 24 20" enable-background="new -0.993 -0.881 24 20" xml:space="preserve">
<g>
	<path fill="#FFFFFF" d="M22.556,10.306l-4.193-9.976c-0.332-0.666-1.211-1.21-1.953-1.21h-2.755l0.533,5.413h3.595l-6.791,5.632
		L4.2,4.532h3.597l0.532-5.413H5.574c-0.744,0-1.622,0.545-1.954,1.21l-4.192,9.976c-0.332,0.666-0.504,1.812-0.382,2.545
		l0.906,4.907c0.122,0.735,0.83,1.335,1.572,1.335h18.935c0.743,0,1.45-0.6,1.572-1.335l0.906-4.907
		C23.058,12.118,22.887,10.971,22.556,10.306z M20.74,13.939l-0.344,1.92c-0.104,0.738-0.795,1.34-1.538,1.34H3.125
		c-0.742,0-1.434-0.602-1.538-1.34l-0.344-1.92c-0.103-0.736,0.42-1.34,1.163-1.34h17.172C20.321,12.599,20.843,13.202,20.74,13.939
		z"/>
</g>
</svg>
