<?xml version="1.0" encoding="utf-8"?>
<!-- Generator: Adobe Illustrator 17.0.0, SVG Export Plug-In . SVG Version: 6.00 Build 0)  -->
<!DOCTYPE svg PUBLIC "-//W3C//DTD SVG 1.1//EN" "http://www.w3.org/Graphics/SVG/1.1/DTD/svg11.dtd">
<svg version="1.1" id="Isolation_Mode" xmlns="http://www.w3.org/2000/svg" xmlns:xlink="http://www.w3.org/1999/xlink" x="0px"
	 y="0px" width="28px" height="23px" viewBox="-5.998 -4.977 28 23" enable-background="new -5.998 -4.977 28 23"
	 xml:space="preserve">
<g>
	<path fill="#FFFFFF" d="M19.207-4.977H-3.196c-1.541,0-2.802,1.284-2.802,2.854v17.116c0,1.57,1.261,2.854,2.802,2.854h22.403
		c1.54,0,2.801-1.284,2.801-2.854V-2.124C22.008-3.693,20.747-4.977,19.207-4.977z M19.207,14.992H-3.196V-2.124h22.403V14.992z
		 M6.162,2.114h-7v2.195h7V2.114z M6.135,5.575h-7.001V7.77h7.001V5.575z M6.108,9.036h-7.001v2.195h7.001V9.036z"/>
</g>
<path fill="#FFFFFF" d="M16.936,11.2l-8.376-0.006c0,0-0.903,0.065-0.981-0.261C7.466,10.469,7.542,9.459,8.684,9.04
	c0,0,2.493-0.689,2.493-1.42c0,0,0.423,0.043,0.423-0.172c0,0-0.423-0.345-0.38-0.99c0,0-0.38-0.086-0.38-0.43
	c0,0-0.254-0.301-0.085-1.163c0,0-0.254-1.333,0.211-2.022c0,0,0.507-0.474,0.761-0.474c0,0,0.084-0.215,0.802-0.215
	c0,0,0.972-0.086,0.972,0.258c0,0,0.845,0.301,0.845,0.603c0,0,0.423,0.56,0.254,1.85c0,0,0.211,1.076-0.168,1.42
	c0,0-0.254,0.388-0.38,0.388c0,0,0.085,0.646-0.211,0.775c0,0,0.169,0.129,0.338,0.086c0,0,0.38,0.904,2.746,1.592
	c0,0,1.106,0.557,0.921,1.741C17.787,11.227,16.936,11.2,16.936,11.2z"/>
</svg>
