<?xml version="1.0" encoding="utf-8"?>
<!-- Generator: Adobe Illustrator 17.0.0, SVG Export Plug-In . SVG Version: 6.00 Build 0)  -->
<!DOCTYPE svg PUBLIC "-//W3C//DTD SVG 1.1//EN" "http://www.w3.org/Graphics/SVG/1.1/DTD/svg11.dtd">
<svg version="1.1" id="Layer_1" xmlns="http://www.w3.org/2000/svg" xmlns:xlink="http://www.w3.org/1999/xlink" x="0px" y="0px"
	 width="19.929px" height="24.032px" viewBox="0 0 19.929 24.032" enable-background="new 0 0 19.929 24.032" xml:space="preserve">
<path fill="#FFFFFF" d="M9.964,0C3.694,0-0.204,2.066,0.008,3.742l2.112,17.391c0.085,0.677,3.255,2.896,7.844,2.899
	c4.589-0.003,7.759-2.223,7.844-2.899L19.92,3.742C20.132,2.066,16.236,0,9.964,0z M14.066,17.944l-1.319,1.319l-2.449-2.449
	l-2.45,2.45l-1.319-1.319l2.45-2.45l-2.45-2.449l1.319-1.32l2.45,2.449l2.45-2.449l1.319,1.32l-2.45,2.449L14.066,17.944z
	 M9.964,6.537C5.375,6.534,2.121,4.899,2.121,4.289C2.119,3.682,5.376,2.044,9.964,2.047c4.589-0.003,7.847,1.635,7.844,2.242
	C17.808,4.899,14.553,6.534,9.964,6.537z"/>
</svg>
