<?xml version="1.0" encoding="utf-8"?>
<!-- Generator: Adobe Illustrator 16.2.0, SVG Export Plug-In . SVG Version: 6.00 Build 0)  -->
<!DOCTYPE svg PUBLIC "-//W3C//DTD SVG 1.1//EN" "http://www.w3.org/Graphics/SVG/1.1/DTD/svg11.dtd">
<svg version="1.1" id="Icons" xmlns="http://www.w3.org/2000/svg" xmlns:xlink="http://www.w3.org/1999/xlink" x="0px" y="0px"
	 width="38.254px" height="38.328px" viewBox="0 0 38.254 38.328" enable-background="new 0 0 38.254 38.328" xml:space="preserve">
<path fill="#D8DDED" d="M33.743,26.037c5.986-5.986,6.029-15.648,0.044-21.633c-5.986-5.986-15.519-5.813-21.504,0.173
	C7.363,9.497,6.917,17.346,9.837,22.913l-8.771,8.771c-1.129,1.129-1.517,2.743-0.388,3.872L2.721,37.6
	c1.129,1.129,2.872,0.87,4.001-0.259l8.771-8.771C21.06,31.488,28.823,30.957,33.743,26.037z M16.354,21.923
	c-3.667-3.666-3.667-9.61,0-13.276c3.667-3.667,9.611-3.667,13.277,0c3.666,3.666,3.666,9.61-0.001,13.276
	C25.963,25.589,20.019,25.589,16.354,21.923z"/>
</svg>
