<?xml version="1.0" encoding="utf-8"?>
<!-- Generator: Adobe Illustrator 16.2.0, SVG Export Plug-In . SVG Version: 6.00 Build 0)  -->
<!DOCTYPE svg PUBLIC "-//W3C//DTD SVG 1.1//EN" "http://www.w3.org/Graphics/SVG/1.1/DTD/svg11.dtd">
<svg version="1.1" id="Layer_1" xmlns="http://www.w3.org/2000/svg" xmlns:xlink="http://www.w3.org/1999/xlink" x="0px" y="0px"
	 width="57.807px" height="57.807px" viewBox="0 0 57.807 57.807" enable-background="new 0 0 57.807 57.807" xml:space="preserve">
<path fill="#FFFFFF" d="M50.928,33.745l6.879-1.527l-0.017-6.084l-6.841-1.521c-0.58-2.833-1.697-5.469-3.234-7.803l3.772-5.925
	l-4.313-4.292l-5.923,3.768c-2.31-1.514-4.913-2.617-7.71-3.195L31.953,0h-6.085l-1.594,7.194c-2.833,0.604-5.467,1.739-7.793,3.301
	l-6.136-3.908L6.043,10.89l3.976,6.241c-1.425,2.246-2.467,4.758-3.021,7.45L0,26.133l0.001,6.084l7.018,1.557
	c0.58,2.758,1.668,5.326,3.16,7.608l-3.87,6.074l4.304,4.302l6.063-3.863c2.307,1.515,4.908,2.618,7.701,3.199l1.49,6.713
	l6.085-0.02l1.482-6.667c2.758-0.557,5.328-1.623,7.617-3.091l5.865,3.734l4.29-4.314l-3.655-5.746
	C49.158,39.334,50.321,36.643,50.928,33.745z M28.97,40.545c-6.303,0-11.414-5.109-11.414-11.414c0-6.303,5.11-11.414,11.414-11.414
	s11.415,5.11,11.415,11.414C40.385,35.436,35.273,40.545,28.97,40.545z"/>
</svg>
