<?xml version="1.0" encoding="utf-8"?>
<!-- Generator: Adobe Illustrator 16.2.0, SVG Export Plug-In . SVG Version: 6.00 Build 0)  -->
<!DOCTYPE svg PUBLIC "-//W3C//DTD SVG 1.1//EN" "http://www.w3.org/Graphics/SVG/1.1/DTD/svg11.dtd">
<svg version="1.1" id="Layer_1" xmlns="http://www.w3.org/2000/svg" xmlns:xlink="http://www.w3.org/1999/xlink" x="0px" y="0px"
	 width="75.525px" height="75.525px" viewBox="0 0 75.525 75.525" enable-background="new 0 0 75.525 75.525" xml:space="preserve">
<path fill="#7B8090" d="M37.763,0C16.907,0,0,16.907,0,37.763c0,20.855,16.907,37.763,37.763,37.763
	c20.855,0,37.763-16.907,37.763-37.763C75.525,16.907,58.618,0,37.763,0z M37.763,69.104c-17.31,0-31.342-14.032-31.342-31.342
	S20.453,6.421,37.763,6.421c17.31,0,31.342,14.032,31.342,31.342S55.072,69.104,37.763,69.104z"/>
<path fill="#7B8090" d="M38.169,61.438c8.044,0,15.376-3.033,20.925-8.013c-0.158-0.961-0.387-1.947-0.746-2.854
	c-0.5-1.264-3.49-3.357-8.859-5.314c-5.354-1.949-7.064-3.597-7.064-7.12c0-2.113,1.635-1.423,2.354-5.299
	c0.297-1.605,1.742-0.025,2.018-3.693c0-1.462-0.789-1.826-0.789-1.826s0.4-2.162,0.559-3.828c0.193-2.077-1.199-7.436-8.628-7.436
	s-8.824,5.358-8.629,7.436c0.156,1.666,0.557,3.828,0.557,3.828s-0.787,0.364-0.787,1.826c0.274,3.668,1.721,2.088,2.017,3.693
	c0.718,3.876,2.351,3.186,2.351,5.299c0,3.523-1.707,5.171-7.063,7.12c-5.37,1.957-8.41,4.031-8.858,5.314
	c-0.311,0.888-0.478,1.766-0.565,2.593C22.539,58.299,29.986,61.438,38.169,61.438z"/>
</svg>
