<?xml version="1.0" encoding="utf-8"?>
<!-- Generator: Adobe Illustrator 17.0.0, SVG Export Plug-In . SVG Version: 6.00 Build 0)  -->
<!DOCTYPE svg PUBLIC "-//W3C//DTD SVG 1.1//EN" "http://www.w3.org/Graphics/SVG/1.1/DTD/svg11.dtd">
<svg version="1.1" id="Layer_1" xmlns="http://www.w3.org/2000/svg" xmlns:xlink="http://www.w3.org/1999/xlink" x="0px" y="0px"
	 width="30px" height="20px" viewBox="-1.279 -0.881 30 20" enable-background="new -1.279 -0.881 30 20" xml:space="preserve">
<g>
	<path fill="#FFFFFF" d="M26.934,14.486c-4.877-1.384-6.356-3.373-6.356-3.373c0.61-0.259,0.436-1.556,0.436-1.556
		c0.262,0,0.783-0.778,0.783-0.778c0.784-0.692,0.348-2.853,0.348-2.853c0.349-2.594-0.522-3.719-0.522-3.719
		c0-0.605-1.74-1.211-1.74-1.211c0-0.692-2.002-0.519-2.002-0.519c-1.481,0-1.511,0.414-1.511,0.414
		c-0.142,0,0.538,0.576,0.538,1.044c0,0,0.536,0.421,0.186,3.015c0,0,0.521,2.277-0.263,2.969c0,0-0.28,0.964-0.911,0.964
		c0,0,0.175,1.054-0.35,1.419c0,0,0.887,1.095,2.761,2.024c1.219,0.603,2.479,0.934,3.558,1.343
		c0.199,0.075,1.899,1.135,2.099,4.439c0.042,0.687,0.624,0.527,0.624,0.527h3.404c0,0,0.64,0.016,0.64-0.602
		C28.653,15.09,26.934,14.486,26.934,14.486z"/>
</g>
<path fill="#FFFFFF" d="M20.015,19.123L1.031,19.111c0,0-2.047,0.143-2.225-0.576c-0.254-1.026-0.08-3.26,2.506-4.187
	c0,0,5.649-1.522,5.649-3.139c0,0,0.958,0.096,0.958-0.38c0,0-0.957-0.761-0.861-2.188c0,0-0.862-0.189-0.862-0.951
	c0,0-0.574-0.665-0.192-2.568c0,0-0.574-2.949,0.479-4.471c0,0,1.149-1.046,1.724-1.046c0,0,0.191-0.476,1.819-0.476
	c0,0,2.203-0.191,2.203,0.571c0,0,1.915,0.666,1.915,1.332c0,0,0.958,1.236,0.574,4.09c0,0,0.479,2.378-0.383,3.139
	c0,0-0.574,0.856-0.861,0.856c0,0,0.192,1.427-0.479,1.712c0,0,0.383,0.285,0.766,0.191c0,0,0.862,1.998,6.225,3.519
	c0,0,2.507,1.232,2.089,3.848C21.946,19.183,20.015,19.123,20.015,19.123z"/>
</svg>
