<?xml version="1.0" encoding="utf-8"?>
<!-- Generator: Adobe Illustrator 16.2.0, SVG Export Plug-In . SVG Version: 6.00 Build 0)  -->
<!DOCTYPE svg PUBLIC "-//W3C//DTD SVG 1.1//EN" "http://www.w3.org/Graphics/SVG/1.1/DTD/svg11.dtd">
<svg version="1.1" id="Layer_1" xmlns="http://www.w3.org/2000/svg" xmlns:xlink="http://www.w3.org/1999/xlink" x="0px" y="0px"
	 width="20.516px" height="24.912px" viewBox="0 0 20.516 24.912" enable-background="new 0 0 20.516 24.912" xml:space="preserve">
<g>
	<path fill="#747E9F" d="M18.757,8.793H16.12V6.741C16.12,2.495,14.164,0,10.259,0C6.353,0,4.397,2.495,4.397,6.741v2.052H1.466
		C0.657,8.793,0,9.741,0,10.551v11.431c0,0.806,0.629,1.668,1.396,1.915l1.753,0.565c0.768,0.248,2.054,0.45,2.86,0.45h8.499
		c0.807,0,2.094-0.202,2.86-0.45l1.753-0.565c0.768-0.247,1.395-1.109,1.395-1.915V10.551C20.516,9.741,19.566,8.793,18.757,8.793z
		 M7.327,6.156c0-2.117,1.169-3.226,2.932-3.226c1.762,0,2.93,1.108,2.93,3.226v2.637H7.327V6.156z"/>
</g>
</svg>
