<?xml version="1.0" encoding="utf-8"?>
<!-- Generator: Adobe Illustrator 16.2.0, SVG Export Plug-In . SVG Version: 6.00 Build 0)  -->
<!DOCTYPE svg PUBLIC "-//W3C//DTD SVG 1.1//EN" "http://www.w3.org/Graphics/SVG/1.1/DTD/svg11.dtd">
<svg version="1.1" id="Isolation_Mode" xmlns="http://www.w3.org/2000/svg" xmlns:xlink="http://www.w3.org/1999/xlink" x="0px"
	 y="0px" width="14.507px" height="14.653px" viewBox="0 0 14.507 14.653" enable-background="new 0 0 14.507 14.653"
	 xml:space="preserve">
<path fill="#FFFFFF" d="M13.628,5.861H8.646V0.879C8.646,0.069,7.989,0,7.181,0C6.37,0,5.715,0.069,5.715,0.879v4.982H0.88
	C0.069,5.861,0,6.518,0,7.327c0,0.809,0.069,1.465,0.88,1.465h4.835v4.982c0,0.81,0.655,0.879,1.466,0.879
	c0.809,0,1.465-0.069,1.465-0.879V8.792h4.982c0.81,0,0.879-0.656,0.879-1.465C14.507,6.518,14.438,5.861,13.628,5.861z"/>
</svg>
