<?xml version="1.0" encoding="utf-8"?>
<!-- Generator: Adobe Illustrator 16.2.0, SVG Export Plug-In . SVG Version: 6.00 Build 0)  -->
<!DOCTYPE svg PUBLIC "-//W3C//DTD SVG 1.1//EN" "http://www.w3.org/Graphics/SVG/1.1/DTD/svg11.dtd">
<svg version="1.1" id="Layer_1" xmlns="http://www.w3.org/2000/svg" xmlns:xlink="http://www.w3.org/1999/xlink" x="0px" y="0px"
	 width="123px" height="152px" viewBox="0 0 123 152" enable-background="new 0 0 123 152" xml:space="preserve">
<g>
	<path fill="#595C66" d="M123,12.924C123,5.786,117.215,0,110.077,0H12.923C5.786,0,0,5.786,0,12.924v126.152
		C0,146.214,5.786,152,12.923,152h97.154c7.138,0,12.923-5.786,12.923-12.924V12.924z M108,137H17V15h91V137z"/>
	<rect x="23" y="26" fill="#5D6172" width="44" height="12"/>
	<rect x="23" y="44" opacity="0.8" fill="#86899B" width="79" height="9"/>
	<rect x="23" y="58" opacity="0.8" fill="#86899B" width="79" height="9"/>
	<rect x="23" y="73" opacity="0.8" fill="#86899B" width="79" height="9"/>
	<rect x="23" y="88" opacity="0.8" fill="#86899B" width="79" height="8"/>
</g>
</svg>
