<?xml version="1.0" encoding="utf-8"?>
<!-- Generator: Adobe Illustrator 16.2.0, SVG Export Plug-In . SVG Version: 6.00 Build 0)  -->
<!DOCTYPE svg PUBLIC "-//W3C//DTD SVG 1.1//EN" "http://www.w3.org/Graphics/SVG/1.1/DTD/svg11.dtd">
<svg version="1.1" id="Icons" xmlns="http://www.w3.org/2000/svg" xmlns:xlink="http://www.w3.org/1999/xlink" x="0px" y="0px"
	 width="16.436px" height="16.437px" viewBox="0 0 16.436 16.437" enable-background="new 0 0 16.436 16.437" xml:space="preserve">
<path fill="#FFFFFF" d="M15.996,13.875L10.34,8.219l5.656-5.656c0.586-0.586,0.585-1.536,0-2.122c-0.586-0.585-1.535-0.586-2.121,0
	L8.218,6.097L2.561,0.439c-0.586-0.586-1.536-0.585-2.122,0c-0.585,0.586-0.586,1.535,0,2.121l5.658,5.658l-5.658,5.657
	c-0.586,0.586-0.585,1.535,0,2.121c0.586,0.586,1.535,0.586,2.121,0l5.658-5.657l5.656,5.656c0.586,0.586,1.536,0.585,2.122,0
	C16.582,15.41,16.582,14.461,15.996,13.875z"/>
</svg>
