<?xml version="1.0" encoding="utf-8"?>
<!-- Generator: Adobe Illustrator 17.0.0, SVG Export Plug-In . SVG Version: 6.00 Build 0)  -->
<!DOCTYPE svg PUBLIC "-//W3C//DTD SVG 1.1//EN" "http://www.w3.org/Graphics/SVG/1.1/DTD/svg11.dtd">
<svg version="1.1" id="Layer_1" xmlns="http://www.w3.org/2000/svg" xmlns:xlink="http://www.w3.org/1999/xlink" x="0px" y="0px"
	 width="25.251px" height="22.333px" viewBox="0 0 25.251 22.333" enable-background="new 0 0 25.251 22.333" xml:space="preserve">
<g>
	<path fill="#FFFFFF" d="M19.651,18.385c0,0.501-0.406,0.907-0.907,0.907H4.006c-0.501,0-0.907-0.406-0.907-0.907V3.949
		c0-0.501,0.406-0.907,0.907-0.907h11.682L18.604,0H1C0.448,0,0,0.448,0,1v20.333c0,0.552,0.448,1,1,1h20.667c0.552,0,1-0.448,1-1
		v-11.5l-3.016,2.646V18.385z"/>
</g>
<path fill="#FFFFFF" d="M24.072,1.871c-1.374-1.375-2.405-1.169-2.405-1.169l-4.812,4.812l-5.499,5.5l-0.962,4.537l4.536-0.962
	l5.5-5.5l4.812-4.812C25.24,4.277,25.447,3.246,24.072,1.871z M14.576,14.183l-1.547,0.333c-0.149-0.279-0.328-0.558-0.658-0.887
	c-0.329-0.329-0.608-0.508-0.887-0.658l0.333-1.546l0.447-0.448c0,0,0.842,0.017,1.791,0.968c0.951,0.95,0.967,1.792,0.967,1.792
	L14.576,14.183z"/>
</svg>
