<?xml version="1.0" encoding="utf-8"?>
<!-- Generator: Adobe Illustrator 16.2.0, SVG Export Plug-In . SVG Version: 6.00 Build 0)  -->
<!DOCTYPE svg PUBLIC "-//W3C//DTD SVG 1.1//EN" "http://www.w3.org/Graphics/SVG/1.1/DTD/svg11.dtd">
<svg version="1.1" id="Icons" xmlns="http://www.w3.org/2000/svg" xmlns:xlink="http://www.w3.org/1999/xlink" x="0px" y="0px"
	 width="37.812px" height="27.675px" viewBox="0 0 37.812 27.675" enable-background="new 0 0 37.812 27.675" xml:space="preserve">
<g>
	<path fill="#FFFFFF" d="M6.629,5.626c0,0.55-0.45,1-1,1H1c-0.55,0-1-0.45-1-1V1c0-0.55,0.45-1,1-1h4.629c0.55,0,1,0.45,1,1V5.626z"
		/>
</g>
<g>
	<path fill="#FFFFFF" d="M37.812,5.626c0,0.55-0.45,1-1,1H12.695c-0.55,0-1-0.45-1-1V1c0-0.55,0.45-1,1-1h24.118c0.55,0,1,0.45,1,1
		V5.626z"/>
</g>
<g>
	<path fill="#FFFFFF" d="M6.629,16.151c0,0.55-0.45,1-1,1H1c-0.55,0-1-0.45-1-1v-4.628c0-0.55,0.45-1,1-1h4.629c0.55,0,1,0.45,1,1
		V16.151z"/>
</g>
<g>
	<path fill="#FFFFFF" d="M37.812,16.151c0,0.55-0.45,1-1,1H12.695c-0.55,0-1-0.45-1-1v-4.628c0-0.55,0.45-1,1-1h24.118
		c0.55,0,1,0.45,1,1V16.151z"/>
</g>
<g>
	<path fill="#FFFFFF" d="M6.629,26.675c0,0.55-0.45,1-1,1H1c-0.55,0-1-0.45-1-1v-4.627c0-0.55,0.45-1,1-1h4.629c0.55,0,1,0.45,1,1
		V26.675z"/>
</g>
<g>
	<path fill="#FFFFFF" d="M37.812,26.675c0,0.55-0.45,1-1,1H12.695c-0.55,0-1-0.45-1-1v-4.627c0-0.55,0.45-1,1-1h24.118
		c0.55,0,1,0.45,1,1V26.675z"/>
</g>
</svg>
