<?xml version="1.0" encoding="utf-8"?>
<!-- Generator: Adobe Illustrator 16.2.0, SVG Export Plug-In . SVG Version: 6.00 Build 0)  -->
<!DOCTYPE svg PUBLIC "-//W3C//DTD SVG 1.1//EN" "http://www.w3.org/Graphics/SVG/1.1/DTD/svg11.dtd">
<svg version="1.1" id="Layer_1" xmlns="http://www.w3.org/2000/svg" xmlns:xlink="http://www.w3.org/1999/xlink" x="0px" y="0px"
	 width="22.014px" height="19.093px" viewBox="0 0 22.014 19.093" enable-background="new 0 0 22.014 19.093" xml:space="preserve">
<g>
	<path fill="#FFFFFF" d="M1.461,5.616h19.092c0.642,0,0.536-0.684,0.217-0.795C20.451,4.71,16.903,3.37,16.286,3.37h-1.011V0H6.739
		v3.37h-1.01c-0.618,0-4.166,1.34-4.484,1.451C0.924,4.933,0.819,5.616,1.461,5.616z M20.778,6.851H1.236
		C0.618,6.851,0,7.581,0,8.199v3.931c0,0.617,0.618,1.348,1.236,1.348h2.226l-0.991,5.615h17.07l-0.991-5.615h2.227
		c0.618,0,1.235-0.73,1.235-1.348V8.199C22.014,7.581,21.396,6.851,20.778,6.851z M4.718,16.847l1.572-7.3h9.435l1.571,7.3H4.718z"
		/>
</g>
</svg>
