<?xml version="1.0" encoding="utf-8"?>
<!-- Generator: Adobe Illustrator 16.2.0, SVG Export Plug-In . SVG Version: 6.00 Build 0)  -->
<!DOCTYPE svg PUBLIC "-//W3C//DTD SVG 1.1//EN" "http://www.w3.org/Graphics/SVG/1.1/DTD/svg11.dtd">
<svg version="1.1" id="Layer_1" xmlns="http://www.w3.org/2000/svg" xmlns:xlink="http://www.w3.org/1999/xlink" x="0px" y="0px"
	 width="21.308px" height="11.933px" viewBox="0 0 21.308 11.933" enable-background="new 0 0 21.308 11.933" xml:space="preserve">
<g>
	<path fill="#FFFFFF" d="M10.653,0C3.664,0,0,5.149,0,5.966s3.664,5.967,10.653,5.967c6.99,0,10.655-5.15,10.655-5.967
		S17.643,0,10.653,0z M10.653,10.556c-2.615,0-4.734-2.055-4.734-4.59c0-2.534,2.119-4.59,4.734-4.59
		c2.616,0,4.736,2.056,4.736,4.59C15.389,8.501,13.269,10.556,10.653,10.556z M10.653,5.966c-0.434-0.476,0.708-2.295,0-2.295
		c-1.307,0-2.367,1.027-2.367,2.295s1.06,2.295,2.367,2.295c1.308,0,2.368-1.027,2.368-2.295C13.021,5.384,11.022,6.37,10.653,5.966
		z"/>
</g>
</svg>
