<?xml version="1.0" encoding="utf-8"?>
<!-- Generator: Adobe Illustrator 17.0.0, SVG Export Plug-In . SVG Version: 6.00 Build 0)  -->
<!DOCTYPE svg PUBLIC "-//W3C//DTD SVG 1.1//EN" "http://www.w3.org/Graphics/SVG/1.1/DTD/svg11.dtd">
<svg version="1.1" id="Layer_2" xmlns="http://www.w3.org/2000/svg" xmlns:xlink="http://www.w3.org/1999/xlink" x="0px" y="0px"
	 width="147.636px" height="116.943px" viewBox="0 0 147.636 116.943" enable-background="new 0 0 147.636 116.943"
	 xml:space="preserve">
<path fill="#FFFFFF" d="M147.635,17.87c0,4.418-3.582,8-8,8H51.318c-4.418,0-8-3.582-8-8V8c0-4.418,3.582-8,8-8h88.317
	c4.418,0,8,3.582,8,8V17.87z"/>
<path fill="#FFFFFF" d="M147.635,63.407c0,4.418-3.582,8-8,8H51.318c-4.418,0-8-3.582-8-8v-9.87c0-4.418,3.582-8,8-8h88.317
	c4.418,0,8,3.582,8,8V63.407z"/>
<path fill="#FFFFFF" d="M147.635,108.941c0,4.418-3.582,8-8,8H51.318c-4.418,0-8-3.582-8-8v-9.87c0-4.418,3.582-8,8-8h88.317
	c4.418,0,8,3.582,8,8V108.941z"/>
<path fill="#FFFFFF" d="M30.068,17.87c0,4.418-3.582,8-8,8H8c-4.418,0-8-3.582-8-8V8c0-4.418,3.582-8,8-8h14.068
	c4.418,0,8,3.582,8,8V17.87z"/>
<path fill="#FFFFFF" d="M30.068,63.407c0,4.418-3.582,8-8,8H8c-4.418,0-8-3.582-8-8v-9.87c0-4.418,3.582-8,8-8h14.068
	c4.418,0,8,3.582,8,8V63.407z"/>
<path fill="#FFFFFF" d="M30.068,108.941c0,4.418-3.582,8-8,8H8c-4.418,0-8-3.582-8-8v-9.87c0-4.418,3.582-8,8-8h14.068
	c4.418,0,8,3.582,8,8V108.941z"/>
</svg>
