<?xml version="1.0" encoding="utf-8"?>
<!-- Generator: Adobe Illustrator 16.2.0, SVG Export Plug-In . SVG Version: 6.00 Build 0)  -->
<!DOCTYPE svg PUBLIC "-//W3C//DTD SVG 1.1//EN" "http://www.w3.org/Graphics/SVG/1.1/DTD/svg11.dtd">
<svg version="1.1" id="Orange" xmlns="http://www.w3.org/2000/svg" xmlns:xlink="http://www.w3.org/1999/xlink" x="0px" y="0px"
	 width="255.247px" height="162.711px" viewBox="0 0 255.247 162.711" enable-background="new 0 0 255.247 162.711"
	 xml:space="preserve">
<g>
	<g opacity="0.2">
		<g>
			<defs>
				<rect id="SVGID_1_" x="9.953" y="104.744" width="90.334" height="20.193"/>
			</defs>
			<clipPath id="SVGID_2_">
				<use xlink:href="#SVGID_1_"  overflow="visible"/>
			</clipPath>
			<path clip-path="url(#SVGID_2_)" d="M55.12,104.743c-24.945,0-45.167,4.523-45.167,10.095c0,5.576,20.223,10.101,45.167,10.101
				c24.944,0,45.169-4.524,45.169-10.101C100.289,109.266,80.064,104.743,55.12,104.743"/>
		</g>
	</g>
	<path fill="#FFFFFF" d="M55.544,14.694c9.833,0,18.178,6.254,21.337,14.989c0.022,0.058,0.045,0.116,0.062,0.169
		c0.181,0.51,0.342,1.029,0.485,1.555c0.044,0.159,0.085,0.32,0.123,0.477c0.117,0.468,0.229,0.94,0.316,1.418
		c0.049,0.258,0.081,0.515,0.118,0.777c0.061,0.407,0.125,0.814,0.164,1.229c0.064,0.685,0.103,1.376,0.107,2.079
		c7.718,4.961,13.74,12.33,16.999,21.055c0.613,0.023,1.213,0.079,1.794,0.177c1.245,0.211,2.408,0.591,3.472,1.144
		c0.597,0.311,1.17,0.68,1.705,1.105c2.408,1.936,3.815,4.821,4.274,8.278c1.007,7.521-2.432,17.759-9.724,26.838
		c-2.016,2.52-4.31,4.156-6.746,5.115c1.132,1.312,1.819,3.023,1.819,4.895c0,4.118-3.341,7.463-7.465,7.463
		c-0.941,0-1.831-0.17-2.656-0.488c-1.039,3.797-4.507,6.592-8.634,6.592c-4.952,0-8.962-4.012-8.962-8.958
		c0-2.223,0.819-4.249,2.159-5.822c-2.144,0.728-4.384,1.233-6.695,1.503c-1.33,0.164-2.679,0.247-4.053,0.247
		c-1.362,0-2.703-0.083-4.025-0.237c-2.285-0.275-4.503-0.779-6.627-1.478c1.287,1.553,2.068,3.534,2.068,5.709
		c0,4.947-4.012,8.96-8.962,8.96c-4.104,0-7.556-2.763-8.616-6.53c-0.828,0.317-1.729,0.496-2.675,0.496
		c-4.122,0-7.47-3.342-7.47-7.469c0-1.869,0.689-3.576,1.824-4.89c-2.441-0.957-4.73-2.597-6.744-5.11
		C6.976,86.835,3.536,76.52,4.612,68.994c0.484-3.395,1.882-6.228,4.257-8.128c0.541-0.438,1.123-0.812,1.738-1.127
		c1.048-0.546,2.187-0.918,3.406-1.119c0.583-0.103,1.181-0.158,1.795-0.184c3.255-8.754,9.287-16.16,17.031-21.138
		c0.002-0.674,0.039-1.34,0.103-1.998c0.042-0.481,0.119-0.951,0.192-1.424c0.032-0.19,0.054-0.389,0.09-0.582
		c0.096-0.512,0.215-1.025,0.348-1.533c0.028-0.118,0.058-0.239,0.089-0.361c0.154-0.555,0.327-1.098,0.519-1.638
		c0.011-0.029,0.02-0.058,0.033-0.092C37.378,20.942,45.72,14.694,55.544,14.694 M55.544,10.27
		c-11.341,0-21.566,7.161-25.463,17.824l-0.014,0.031L30,28.315c-0.224,0.627-0.425,1.264-0.604,1.911l-0.09,0.352
		c-0.175,0.684-0.318,1.295-0.429,1.911c-0.032,0.152-0.058,0.34-0.085,0.525l-0.02,0.135c-0.102,0.63-0.181,1.172-0.23,1.721
		c-6.914,4.941-12.436,11.734-15.853,19.495c-1.443,0.289-2.84,0.779-4.127,1.452c-0.863,0.439-1.71,0.987-2.479,1.612
		c-3.163,2.533-5.194,6.321-5.85,10.942c-1.282,8.968,2.792,20.608,10.635,30.381c1.309,1.633,2.766,3.023,4.352,4.157
		c-0.267,0.997-0.405,2.028-0.405,3.073c0,6.559,5.335,11.894,11.894,11.894c0.038,0,0.079,0,0.119,0
		c2.43,3.679,6.604,6.034,11.171,6.034c7.312,0,13.273-5.895,13.384-13.181c1.401,0.149,2.795,0.226,4.162,0.226
		c1.394,0,2.793-0.079,4.164-0.23c0.068,7.324,6.047,13.261,13.386,13.261c4.608,0,8.799-2.381,11.221-6.105c0.023,0,0.047,0,0.07,0
		c6.556,0,11.889-5.332,11.889-11.887c0-1.045-0.136-2.079-0.403-3.075c1.593-1.139,3.052-2.533,4.361-4.17
		c7.885-9.82,11.87-21.107,10.654-30.19c-0.622-4.686-2.658-8.539-5.887-11.138c-0.771-0.608-1.58-1.134-2.432-1.58
		c-1.3-0.675-2.709-1.17-4.198-1.474c-3.416-7.716-8.92-14.477-15.809-19.401c-0.002-0.027-0.004-0.051-0.006-0.076
		c-0.039-0.421-0.101-0.85-0.163-1.282l-0.027-0.17l-0.03-0.222c-0.034-0.239-0.072-0.481-0.117-0.72
		c-0.098-0.553-0.23-1.117-0.369-1.672c-0.045-0.184-0.099-0.393-0.154-0.598c-0.166-0.606-0.36-1.228-0.576-1.841
		c-0.035-0.102-0.066-0.186-0.101-0.271C77.124,17.438,66.894,10.27,55.544,10.27"/>
	<path fill="#C99E49" d="M14.013,58.619c-1.217,0.201-2.358,0.573-3.403,1.119c-0.618,0.315-1.2,0.689-1.741,1.127
		c-2.375,1.902-3.773,4.733-4.257,8.127c-1.077,7.528,2.363,17.842,9.706,26.987c2.014,2.514,4.305,4.153,6.744,5.112
		c-1.134,1.313-1.824,3.021-1.824,4.89c0,4.126,3.348,7.469,7.47,7.469c3.191,0,5.912-2.003,6.984-4.819
		c0.313-0.822,0.486-1.715,0.486-2.65c0-1.669-0.544-3.203-1.469-4.442c7.217-1.719,6.492-6.292,10.495-9.506L41.97,73.791
		C33.384,63.084,22.074,57.254,14.013,58.619"/>
	<path fill="#C99E49" d="M106.502,69.145c-0.459-3.458-1.869-6.34-4.277-8.277c-0.532-0.423-1.104-0.792-1.705-1.106
		c-1.063-0.553-2.227-0.933-3.471-1.144c-8.059-1.347-19.348,4.485-27.93,15.177L67.887,92.04c4,3.213,3.278,7.788,10.495,9.502
		c-0.922,1.247-1.469,2.782-1.469,4.452c0,0.961,0.182,1.875,0.513,2.714c1.088,2.782,3.793,4.751,6.96,4.751
		c4.122,0,7.465-3.346,7.465-7.465c0-1.872-0.689-3.581-1.821-4.892c2.437-0.963,4.732-2.596,6.746-5.116
		C104.067,86.906,107.509,76.666,106.502,69.145"/>
	<path fill="#C99E49" d="M83.572,53.525c-0.856-1.256-1.799-2.448-2.806-3.576c-6.21-6.899-15.206-11.243-25.222-11.243
		c-10.01,0-19.01,4.343-25.215,11.243c-1.007,1.119-1.94,2.308-2.791,3.552c-3.726,5.448-5.904,12.028-5.904,19.118
		c0,6.092,1.612,11.819,4.422,16.758c2.626,4.601,6.297,8.535,10.691,11.468c4.327,2.882,9.351,4.802,14.771,5.447
		c1.325,0.154,2.664,0.239,4.026,0.239c1.374,0,2.723-0.085,4.053-0.248c5.422-0.645,10.45-2.565,14.771-5.458
		c4.385-2.929,8.047-6.854,10.668-11.449c2.809-4.939,4.424-10.666,4.424-16.758C89.459,65.54,87.29,58.968,83.572,53.525"/>
	<path fill="#A07A38" d="M55.544,95.794c-1.757,0-3.186,0.801-3.186,1.788c0,0.068,0.009,0.128,0.018,0.191
		c0.175,0.899,1.524,1.593,3.168,1.593s2.999-0.694,3.173-1.593c0.008-0.063,0.015-0.123,0.015-0.191
		C58.733,96.595,57.306,95.794,55.544,95.794"/>
	<path fill="#187AA0" d="M56.466,103.401c-6.69,0-13.015-0.651-18.632-1.803c4.073,2.503,8.712,4.171,13.682,4.755
		c1.322,0.158,2.665,0.244,4.028,0.244c1.372,0,2.724-0.092,4.053-0.244c4.619-0.558,8.951-2.035,12.809-4.25
		C67.492,102.936,62.109,103.401,56.466,103.401"/>
	<path fill="#EAC664" d="M55.912,30.611l0.06-0.089c-23.657,0-42.836,19.177-42.836,42.838c0,12.932,5.741,24.535,14.808,32.382
		c0.004,0.01,0.006,0.012,0.011,0.016c0.922,0.846,1.552,1.555,1.356,2.576v0.002c-0.174,0.703-0.272,1.433-0.272,2.189
		c0,4.947,4.012,8.959,8.96,8.959c4.95,0,8.962-4.012,8.962-8.959c0-2.33-0.893-4.453-2.354-6.051c-0.002,0-0.004-0.002-0.004-0.002
		c-0.555-0.667-0.993-1.217-0.993-2.067V61.28V48.35l4.832-6.971h14.158l4.887,7.054V61.28v41.201c0,0.854-0.438,1.402-0.995,2.068
		c0,0.002-0.002,0.002-0.002,0.002c-1.458,1.598-2.354,3.717-2.354,6.051c0,4.946,4.01,8.958,8.963,8.958
		c4.948,0,8.956-4.012,8.956-8.958c0-0.759-0.092-1.483-0.267-2.186v-0.011c-0.199-1.021,0.43-1.714,1.354-2.572
		c0-0.002,0.006-0.004,0.009-0.011c9.072-7.852,14.81-19.45,14.81-32.389C97.958,50.042,79.203,31.029,55.912,30.611"/>
	<path fill="#EFD081" d="M78.259,37.464c0,12.542-10.166,22.708-22.713,22.708c-12.545,0-22.711-10.166-22.711-22.708
		c0-12.541,10.166-22.707,22.711-22.707C68.093,14.758,78.259,24.924,78.259,37.464"/>
	<g opacity="0.2">
		<g>
			<defs>
				<rect id="SVGID_3_" x="154.095" y="104.744" width="90.338" height="20.193"/>
			</defs>
			<clipPath id="SVGID_4_">
				<use xlink:href="#SVGID_3_"  overflow="visible"/>
			</clipPath>
			<path clip-path="url(#SVGID_4_)" d="M199.262,104.743c-24.942,0-45.167,4.523-45.167,10.095c0,5.576,20.225,10.101,45.167,10.101
				c24.948,0,45.174-4.524,45.174-10.101C244.436,109.266,224.21,104.743,199.262,104.743"/>
		</g>
	</g>
	<path fill="#C99E49" d="M158.158,58.619c-1.215,0.201-2.357,0.573-3.406,1.119c-0.615,0.315-1.195,0.689-1.743,1.127
		c-2.37,1.902-3.771,4.733-4.253,8.127c-1.076,7.528,2.366,17.842,9.701,26.987c2.021,2.514,4.309,4.153,6.749,5.112
		c-1.131,1.313-1.821,3.021-1.821,4.89c0,4.126,3.346,7.469,7.47,7.469c3.189,0,5.912-2.003,6.984-4.819
		c0.312-0.822,0.486-1.715,0.486-2.65c0-1.669-0.549-3.203-1.473-4.442c7.221-1.719,6.493-6.292,10.497-9.506l-1.235-18.243
		C177.527,63.084,166.219,57.254,158.158,58.619"/>
	<path fill="#C99E49" d="M250.647,69.145c-0.463-3.458-1.868-6.34-4.276-8.277c-0.532-0.423-1.105-0.792-1.705-1.106
		c-1.065-0.553-2.229-0.933-3.474-1.144c-8.059-1.347-19.348,4.485-27.93,15.177L212.03,92.04c4.004,3.213,3.278,7.788,10.497,9.502
		c-0.924,1.247-1.471,2.782-1.471,4.452c0,0.961,0.184,1.875,0.518,2.714c1.086,2.782,3.789,4.751,6.955,4.751
		c4.124,0,7.47-3.346,7.47-7.465c0-1.872-0.691-3.581-1.823-4.892c2.437-0.963,4.729-2.596,6.746-5.116
		C248.215,86.906,251.655,76.666,250.647,69.145"/>
	<path fill="#C99E49" d="M227.72,53.525c-0.86-1.256-1.799-2.448-2.808-3.576c-6.208-6.899-15.208-11.243-25.218-11.243
		c-10.017,0-19.017,4.343-25.225,11.243c-1.003,1.119-1.94,2.308-2.788,3.552c-3.724,5.448-5.901,12.028-5.901,19.118
		c0,6.092,1.611,11.819,4.422,16.758c2.628,4.601,6.297,8.535,10.688,11.468c4.325,2.882,9.351,4.802,14.772,5.447
		c1.319,0.154,2.664,0.239,4.031,0.239c1.369,0,2.719-0.085,4.048-0.248c5.422-0.645,10.446-2.565,14.772-5.458
		c4.384-2.929,8.044-6.854,10.666-11.449c2.812-4.939,4.422-10.666,4.422-16.758C233.603,65.54,231.433,58.968,227.72,53.525"/>
	<path fill="#A07A38" d="M199.693,95.794c-1.764,0-3.187,0.801-3.187,1.788c0,0.068,0.005,0.128,0.016,0.191
		c0.17,0.899,1.526,1.593,3.171,1.593c1.642,0,2.996-0.694,3.169-1.593c0.011-0.063,0.015-0.123,0.015-0.191
		C202.877,96.595,201.452,95.794,199.693,95.794"/>
	<path fill="#FFFFFF" d="M199.693,7.327c3.188,0,5.778,2.59,5.778,5.778c0,0.812-0.169,1.58-0.468,2.282
		c9.955,2.383,17.36,11.321,17.394,22c7.723,4.961,13.745,12.33,17.006,21.055c0.61,0.023,1.212,0.079,1.789,0.177
		c1.245,0.211,2.408,0.591,3.474,1.144c0.599,0.311,1.173,0.68,1.705,1.105c2.408,1.936,3.813,4.821,4.276,8.278
		c1.006,7.521-2.433,17.759-9.726,26.838c-2.017,2.52-4.31,4.156-6.746,5.115c1.132,1.312,1.823,3.023,1.823,4.895
		c0,4.118-3.346,7.463-7.471,7.463c-0.938,0-1.83-0.17-2.656-0.488c-1.042,3.797-4.502,6.592-8.635,6.592
		c-4.95,0-8.958-4.012-8.958-8.958c0-2.223,0.819-4.249,2.159-5.822c-2.148,0.728-4.386,1.233-6.697,1.504
		c-1.329,0.163-2.679,0.246-4.048,0.246c-1.365,0-2.712-0.083-4.031-0.237c-2.289-0.275-4.504-0.779-6.626-1.478
		c1.285,1.553,2.068,3.534,2.068,5.709c0,4.947-4.012,8.96-8.963,8.96c-4.104,0-7.553-2.763-8.614-6.53
		c-0.833,0.317-1.733,0.496-2.673,0.496c-4.124,0-7.47-3.342-7.47-7.469c0-1.869,0.69-3.576,1.821-4.89
		c-2.44-0.957-4.728-2.597-6.749-5.11c-7.335-9.147-10.777-19.462-9.701-26.988c0.482-3.395,1.883-6.228,4.253-8.128
		c0.547-0.438,1.127-0.812,1.743-1.127c1.049-0.546,2.191-0.918,3.406-1.119c0.582-0.103,1.179-0.158,1.796-0.184
		c3.252-8.754,9.285-16.16,17.032-21.138c0.073-10.64,7.461-19.529,17.393-21.91c-0.303-0.702-0.466-1.471-0.466-2.282
		C193.913,9.917,196.497,7.327,199.693,7.327 M199.693,2.903c-5.359,0-9.767,4.148-10.173,9.403
		c-9.353,3.759-15.88,12.436-16.837,22.566c-6.915,4.941-12.436,11.734-15.848,19.493c-1.439,0.289-2.835,0.777-4.125,1.448
		c-0.854,0.436-1.691,0.978-2.466,1.595c-3.186,2.56-5.214,6.348-5.87,10.962c-1.28,8.963,2.793,20.604,10.631,30.378
		c1.314,1.636,2.773,3.028,4.36,4.162c-0.269,0.994-0.405,2.028-0.405,3.07c0,6.559,5.335,11.894,11.894,11.894
		c0.038,0,0.079,0,0.119,0c2.43,3.681,6.603,6.034,11.168,6.034c7.313,0,13.275-5.895,13.385-13.181
		c1.394,0.149,2.79,0.226,4.167,0.226c1.395,0,2.793-0.079,4.164-0.23c0.065,7.324,6.042,13.261,13.38,13.261
		c4.604,0,8.797-2.381,11.221-6.105h0.07c6.558,0,11.895-5.332,11.895-11.887c0-1.045-0.139-2.079-0.405-3.077
		c1.591-1.139,3.05-2.531,4.359-4.168c7.886-9.82,11.871-21.109,10.654-30.19c-0.627-4.692-2.663-8.543-5.888-11.138
		c-0.766-0.608-1.577-1.136-2.436-1.582c-1.297-0.673-2.705-1.167-4.193-1.47c-3.417-7.715-8.922-14.477-15.808-19.399
		c-0.921-10.181-7.454-18.894-16.846-22.664C209.452,7.052,205.048,2.903,199.693,2.903"/>
	<path fill="#187AA0" d="M200.608,103.401c-6.691,0-13.012-0.651-18.632-1.803c4.073,2.503,8.714,4.171,13.683,4.755
		c1.322,0.158,2.665,0.244,4.027,0.244c1.377,0,2.722-0.092,4.055-0.244c4.617-0.558,8.951-2.035,12.812-4.25
		C211.632,102.936,206.253,103.401,200.608,103.401"/>
	<path fill="#EAC664" d="M200.055,30.611l0.061-0.089c-23.657,0-42.838,19.177-42.838,42.838c0,12.932,5.743,24.535,14.81,32.382
		c0.009,0.01,0.009,0.012,0.011,0.016c0.923,0.846,1.554,1.555,1.354,2.576v0.002c-0.172,0.703-0.266,1.433-0.266,2.189
		c0,4.947,4.01,8.959,8.957,8.959c4.95,0,8.96-4.012,8.96-8.959c0-2.33-0.893-4.453-2.352-6.051c-0.002,0-0.002-0.002-0.004-0.002
		c-0.558-0.667-0.994-1.217-0.994-2.067V61.28V48.35l4.829-6.971h14.161l4.887,7.054V61.28v41.201c0,0.854-0.442,1.402-0.993,2.068
		c-0.003,0.002-0.003,0.002-0.003,0.002c-1.463,1.598-2.354,3.717-2.354,6.051c0,4.946,4.006,8.958,8.957,8.958
		c4.949,0,8.96-4.012,8.96-8.958c0-0.759-0.095-1.483-0.271-2.186v-0.011c-0.192-1.021,0.432-1.714,1.354-2.572
		c0.007-0.002,0.012-0.004,0.012-0.011c9.072-7.852,14.813-19.45,14.813-32.389C242.104,50.042,223.351,31.029,200.055,30.611"/>
	<path fill="#222222" d="M205.47,13.105c0,3.198-2.586,5.785-5.777,5.785c-3.193,0-5.78-2.586-5.78-5.785
		c0-3.188,2.587-5.778,5.78-5.778C202.884,7.327,205.47,9.917,205.47,13.105"/>
	<path fill="#EFD081" d="M222.404,37.464c0,12.542-10.171,22.708-22.711,22.708c-12.545,0-22.714-10.166-22.714-22.708
		c0-12.541,10.169-22.707,22.714-22.707C212.233,14.758,222.404,24.924,222.404,37.464"/>
	<path fill="#FFFFFF" d="M193.443,49.712c0.745-2.757,3.254-4.798,6.25-4.798c2.989,0,5.505,2.041,6.245,4.798H193.443z"/>
	<path fill="#222222" d="M186.261,41.588c0-1.044,0.849-1.898,1.896-1.898c1.042,0,1.888,0.854,1.888,1.898H186.261z"/>
	<path fill="#222222" d="M209.333,41.588c0-1.044,0.848-1.898,1.894-1.898c1.047,0,1.895,0.854,1.895,1.898H209.333z"/>
	<g opacity="0.2">
		<g>
			<defs>
				<rect id="SVGID_5_" x="66.824" y="135.789" width="120.454" height="26.922"/>
			</defs>
			<clipPath id="SVGID_6_">
				<use xlink:href="#SVGID_5_"  overflow="visible"/>
			</clipPath>
			<path clip-path="url(#SVGID_6_)" d="M127.052,135.788c-33.267,0-60.23,6.026-60.23,13.463c0,7.431,26.963,13.462,60.23,13.462
				c33.26,0,60.228-6.031,60.228-13.462C187.279,141.813,160.312,135.788,127.052,135.788"/>
		</g>
	</g>
	<path fill="#C99E49" d="M72.244,74.285c-1.625,0.273-3.149,0.767-4.545,1.491c-0.816,0.42-1.593,0.92-2.32,1.505
		c-3.167,2.541-5.026,6.313-5.673,10.84c-1.431,10.039,3.155,23.79,12.938,35.979c2.688,3.349,5.748,5.535,8.996,6.822
		c-1.512,1.741-2.43,4.021-2.43,6.515c0,5.503,4.456,9.96,9.96,9.96c4.252,0,7.884-2.67,9.308-6.432
		c0.418-1.094,0.649-2.285,0.649-3.528c0-2.223-0.728-4.272-1.958-5.929c9.624-2.283,8.657-8.382,13.997-12.669l-1.648-24.327
		C98.065,80.244,82.984,72.466,72.244,74.285"/>
	<path fill="#C99E49" d="M195.559,88.322c-0.617-4.61-2.49-8.46-5.701-11.033c-0.713-0.57-1.476-1.06-2.274-1.483
		c-1.422-0.738-2.972-1.244-4.623-1.522c-10.744-1.795-25.802,5.981-37.241,20.239l-1.649,24.327
		c5.337,4.284,4.374,10.381,13.997,12.666c-1.231,1.654-1.96,3.702-1.96,5.926c0,1.28,0.246,2.503,0.687,3.63
		c1.448,3.708,5.055,6.334,9.274,6.334c5.503,0,9.959-4.462,9.959-9.964c0-2.487-0.918-4.764-2.428-6.508
		c3.249-1.294,6.304-3.47,8.995-6.825C192.313,111.996,196.901,98.35,195.559,88.322"/>
	<path fill="#C99E49" d="M164.985,67.495c-1.14-1.674-2.394-3.263-3.743-4.767c-8.276-9.197-20.274-14.985-33.625-14.985
		c-13.35,0-25.349,5.789-33.625,14.992c-1.343,1.488-2.584,3.064-3.722,4.724c-4.961,7.264-7.867,16.04-7.867,25.497
		c0,8.124,2.144,15.75,5.9,22.34c3.496,6.141,8.394,11.375,14.252,15.284c5.765,3.852,12.464,6.41,19.69,7.269
		c1.764,0.204,3.554,0.322,5.371,0.322c1.829,0,3.63-0.118,5.402-0.327c7.226-0.865,13.928-3.43,19.698-7.281
		c5.842-3.91,10.728-9.137,14.221-15.267c3.752-6.59,5.894-14.216,5.894-22.34C172.831,83.511,169.936,74.75,164.985,67.495"/>
	<path fill="#A07A38" d="M127.618,123.854c-2.345,0-4.247,1.068-4.247,2.381c0,0.081,0.009,0.173,0.025,0.256
		c0.225,1.194,2.029,2.125,4.222,2.125c2.195,0,3.999-0.931,4.228-2.125c0.013-0.083,0.02-0.175,0.02-0.256
		C131.865,124.922,129.965,123.854,127.618,123.854"/>
	<path fill="#FFFFFF" d="M127.618,5.898c4.256,0,7.709,3.45,7.709,7.705c0,1.079-0.223,2.108-0.626,3.041
		c13.273,3.182,23.145,15.094,23.195,29.328c10.293,6.62,18.325,16.45,22.675,28.082c0.81,0.023,1.616,0.104,2.388,0.23
		c1.654,0.278,3.205,0.781,4.625,1.52c0.799,0.425,1.562,0.916,2.274,1.486c3.211,2.571,5.084,6.422,5.701,11.031
		c1.343,10.028-3.244,23.671-12.966,35.785c-2.688,3.354-5.744,5.535-8.996,6.825c1.514,1.746,2.431,4.024,2.431,6.51
		c0,5.502-4.455,9.965-9.958,9.965c-1.253,0-2.438-0.235-3.542-0.656c-1.388,5.063-6.006,8.792-11.514,8.792
		c-6.6,0-11.945-5.352-11.945-11.949c0-2.963,1.089-5.665,2.877-7.754c-2.859,0.953-5.842,1.636-8.926,2.005
		c-1.772,0.206-3.574,0.325-5.402,0.325c-1.819,0-3.607-0.119-5.371-0.32c-3.05-0.365-6.006-1.034-8.837-1.97
		c1.717,2.066,2.762,4.714,2.762,7.609c0,6.599-5.351,11.949-11.95,11.949c-5.471,0-10.077-3.686-11.491-8.705
		c-1.105,0.423-2.308,0.666-3.561,0.666c-5.504,0-9.959-4.458-9.959-9.961c0-2.493,0.917-4.772,2.43-6.517
		c-3.252-1.284-6.308-3.47-8.996-6.82c-9.784-12.19-14.368-25.94-12.939-35.979c0.645-4.527,2.506-8.302,5.673-10.839
		c0.728-0.587,1.503-1.088,2.321-1.507c1.396-0.723,2.919-1.217,4.544-1.491c0.775-0.134,1.573-0.209,2.391-0.239
		c4.339-11.678,12.381-21.549,22.709-28.186c0.101-14.187,9.953-26.044,23.192-29.215c-0.4-0.933-0.622-1.962-0.622-3.041
		C119.914,9.349,123.359,5.898,127.618,5.898 M127.618,0c-7.141,0-13.015,5.532-13.563,12.536
		c-12.466,5.012-21.169,16.579-22.449,30.089c-9.215,6.591-16.576,15.649-21.132,25.99c-1.938,0.396-3.786,1.04-5.486,1.922
		c-1.164,0.598-2.283,1.322-3.308,2.148c-4.229,3.395-6.935,8.445-7.814,14.604c-1.705,11.966,3.728,27.487,14.178,40.504
		c1.748,2.178,3.688,4.031,5.808,5.545c-0.356,1.327-0.54,2.706-0.54,4.1c0,8.746,7.114,15.859,15.859,15.859h0.158
		c3.24,4.905,8.808,8.041,14.894,8.041c9.75,0,17.699-7.859,17.846-17.573c1.931,0.206,3.744,0.304,5.55,0.304
		c1.797,0,3.664-0.103,5.552-0.304c0.092,9.763,8.061,17.678,17.844,17.678c6.141,0,11.731-3.171,14.96-8.137h0.096
		c8.743,0,15.857-7.115,15.857-15.863c0-1.394-0.184-2.768-0.54-4.095c2.122-1.517,4.064-3.372,5.81-5.55
		c10.518-13.106,15.831-28.156,14.21-40.257c-0.841-6.271-3.559-11.406-7.861-14.855c-0.964-0.772-2.039-1.475-3.195-2.09
		c-1.766-0.918-3.648-1.578-5.633-1.982c-4.556-10.285-11.897-19.296-21.073-25.865c-1.238-13.565-9.944-25.179-22.458-30.212
		C140.639,5.532,134.763,0,127.618,0"/>
	<path fill="#187AA0" d="M128.843,133.994c-8.917,0-17.352-0.866-24.842-2.401c5.429,3.33,11.614,5.548,18.244,6.338
		c1.761,0.207,3.552,0.32,5.374,0.32c1.828,0,3.626-0.113,5.402-0.328c6.156-0.729,11.931-2.708,17.078-5.659
		C143.54,133.38,136.368,133.994,128.843,133.994"/>
	<path fill="#EAC664" d="M128.103,36.939l0.081-0.118c-31.544,0-57.112,25.575-57.112,57.115c0,17.249,7.653,32.714,19.743,43.18
		c0.002,0.011,0.009,0.013,0.013,0.02c1.231,1.14,2.071,2.069,1.809,3.431v0.011c-0.235,0.931-0.361,1.911-0.361,2.912
		c0,6.599,5.347,11.95,11.948,11.95c6.597,0,11.947-5.351,11.947-11.95c0-3.106-1.193-5.939-3.139-8.062
		c-0.005-0.002-0.005-0.002-0.008-0.007c-0.742-0.887-1.324-1.618-1.324-2.758V77.831V60.598l6.445-9.296h18.878l6.514,9.403v17.125
		v54.93c0,1.145-0.584,1.872-1.328,2.763c0,0-0.002,0.002-0.002,0.009c-1.95,2.124-3.139,4.949-3.139,8.062
		c0,6.597,5.349,11.949,11.945,11.949c6.602,0,11.951-5.353,11.951-11.949c0-1.01-0.13-1.985-0.363-2.912
		c0-0.002-0.002-0.002-0.002-0.013c-0.258-1.358,0.575-2.292,1.808-3.428c0.005-0.01,0.009-0.015,0.016-0.021
		c12.093-10.47,19.743-25.931,19.743-43.188C184.165,62.854,159.161,37.501,128.103,36.939"/>
	<path fill="#896F00" d="M135.328,13.604c0,4.258-3.453,7.709-7.709,7.709c-4.259,0-7.708-3.451-7.708-7.709
		c0-4.253,3.448-7.704,7.708-7.704C131.875,5.899,135.328,9.35,135.328,13.604"/>
	<path fill="#EFD081" d="M157.899,46.078c0,16.728-13.555,30.282-30.282,30.282c-16.722,0-30.281-13.555-30.281-30.282
		c0-16.718,13.559-30.272,30.281-30.272C144.344,15.806,157.899,29.36,157.899,46.078"/>
	<path fill="#FFFFFF" d="M119.291,56.021c0.989,3.674,4.339,6.384,8.33,6.384c3.989,0,7.337-2.71,8.324-6.384H119.291z"/>
	<path fill="#222222" d="M109.712,51.576c0-1.392,1.13-2.524,2.526-2.524c1.392,0,2.522,1.132,2.522,2.524H109.712z"/>
	<path fill="#222222" d="M140.473,51.576c0-1.392,1.132-2.524,2.524-2.524c1.394,0,2.526,1.132,2.526,2.524H140.473z"/>
	<path fill="#FFFFFF" d="M58.951,49.004c0,1.877-1.526,3.403-3.403,3.403c-1.882,0-3.406-1.526-3.406-3.403
		c0-1.882,1.524-3.406,3.406-3.406C57.425,45.598,58.951,47.122,58.951,49.004"/>
	<path fill="#222222" d="M68.605,41.575v-0.009c-0.011-0.833-0.687-1.503-1.524-1.503c-0.834,0-1.51,0.671-1.521,1.503v0.002
		c0,0.006-0.002,0.011-0.002,0.018h0.002c0.013,0.83,0.691,1.502,1.521,1.502c0.837,0,1.513-0.672,1.524-1.502V41.575z"/>
	<path fill="#222222" d="M45.535,41.579c0-0.004,0.002-0.011,0.002-0.013h-0.002c-0.011-0.833-0.689-1.504-1.524-1.504
		c-0.837,0-1.51,0.672-1.519,1.504h-0.004c0,0.002,0.002,0.007,0.002,0.009c0,0.002-0.002,0.004-0.002,0.011h0.004
		c0.008,0.83,0.682,1.501,1.519,1.501c0.835,0,1.516-0.671,1.524-1.501V41.579z"/>
	<polygon fill="#222222" points="201.83,59.115 199.676,64.229 197.52,59.115 	"/>
</g>
</svg>
